<mxfile host="Electron" modified="2025-07-19T15:05:40.315Z" agent="Mozilla/5.0 (Windows NT 10.0; Win64; x64) AppleWebKit/537.36 (KHTML, like Gecko) draw.io/23.0.2 Chrome/120.0.6099.109 Electron/28.1.0 Safari/537.36" etag="gvUmYxCwoGZ0Zephs7MT" version="23.0.2" type="device">
  <diagram name="Page-1" id="2YBvvXClWsGukQMizWep">
    <mxGraphModel dx="2045" dy="697" grid="1" gridSize="10" guides="1" tooltips="1" connect="1" arrows="1" fold="1" page="1" pageScale="1" pageWidth="850" pageHeight="1100" math="0" shadow="0">
      <root>
        <mxCell id="0" />
        <mxCell id="1" parent="0" />
        <mxCell id="aM9ryv3xv72pqoxQDRHE-1" value="Twitch component" style="shape=umlLifeline;perimeter=lifelinePerimeter;whiteSpace=wrap;html=1;container=0;dropTarget=0;collapsible=0;recursiveResize=0;outlineConnect=0;portConstraint=eastwest;newEdgeStyle={&quot;edgeStyle&quot;:&quot;elbowEdgeStyle&quot;,&quot;elbow&quot;:&quot;vertical&quot;,&quot;curved&quot;:0,&quot;rounded&quot;:0};" parent="1" vertex="1">
          <mxGeometry x="-210" y="40" width="100" height="300" as="geometry" />
        </mxCell>
        <mxCell id="aM9ryv3xv72pqoxQDRHE-2" value="" style="html=1;points=[];perimeter=orthogonalPerimeter;outlineConnect=0;targetShapes=umlLifeline;portConstraint=eastwest;newEdgeStyle={&quot;edgeStyle&quot;:&quot;elbowEdgeStyle&quot;,&quot;elbow&quot;:&quot;vertical&quot;,&quot;curved&quot;:0,&quot;rounded&quot;:0};" parent="aM9ryv3xv72pqoxQDRHE-1" vertex="1">
          <mxGeometry x="45" y="70" width="10" height="190" as="geometry" />
        </mxCell>
        <mxCell id="aM9ryv3xv72pqoxQDRHE-3" value="" style="html=1;verticalAlign=bottom;startArrow=oval;endArrow=block;startSize=8;edgeStyle=elbowEdgeStyle;elbow=vertical;curved=0;rounded=0;" parent="aM9ryv3xv72pqoxQDRHE-1" target="aM9ryv3xv72pqoxQDRHE-2" edge="1">
          <mxGeometry relative="1" as="geometry">
            <mxPoint x="-15" y="70" as="sourcePoint" />
          </mxGeometry>
        </mxCell>
        <mxCell id="aM9ryv3xv72pqoxQDRHE-4" value="" style="html=1;points=[];perimeter=orthogonalPerimeter;outlineConnect=0;targetShapes=umlLifeline;portConstraint=eastwest;newEdgeStyle={&quot;edgeStyle&quot;:&quot;elbowEdgeStyle&quot;,&quot;elbow&quot;:&quot;vertical&quot;,&quot;curved&quot;:0,&quot;rounded&quot;:0};" parent="aM9ryv3xv72pqoxQDRHE-1" vertex="1">
          <mxGeometry x="50" y="120" width="10" height="80" as="geometry" />
        </mxCell>
        <mxCell id="aM9ryv3xv72pqoxQDRHE-5" value="Memory" style="shape=umlLifeline;perimeter=lifelinePerimeter;whiteSpace=wrap;html=1;container=0;dropTarget=0;collapsible=0;recursiveResize=0;outlineConnect=0;portConstraint=eastwest;newEdgeStyle={&quot;edgeStyle&quot;:&quot;elbowEdgeStyle&quot;,&quot;elbow&quot;:&quot;vertical&quot;,&quot;curved&quot;:0,&quot;rounded&quot;:0};" parent="1" vertex="1">
          <mxGeometry x="360" y="40" width="100" height="390" as="geometry" />
        </mxCell>
        <mxCell id="aM9ryv3xv72pqoxQDRHE-6" value="" style="html=1;points=[];perimeter=orthogonalPerimeter;outlineConnect=0;targetShapes=umlLifeline;portConstraint=eastwest;newEdgeStyle={&quot;edgeStyle&quot;:&quot;elbowEdgeStyle&quot;,&quot;elbow&quot;:&quot;vertical&quot;,&quot;curved&quot;:0,&quot;rounded&quot;:0};" parent="aM9ryv3xv72pqoxQDRHE-5" vertex="1">
          <mxGeometry x="45" y="80" width="10" height="170" as="geometry" />
        </mxCell>
        <mxCell id="XTJR7gHnpwJBO97E3nRa-1" value="LLM" style="shape=umlLifeline;perimeter=lifelinePerimeter;whiteSpace=wrap;html=1;container=0;dropTarget=0;collapsible=0;recursiveResize=0;outlineConnect=0;portConstraint=eastwest;newEdgeStyle={&quot;edgeStyle&quot;:&quot;elbowEdgeStyle&quot;,&quot;elbow&quot;:&quot;vertical&quot;,&quot;curved&quot;:0,&quot;rounded&quot;:0};" vertex="1" parent="1">
          <mxGeometry x="500" y="40" width="100" height="390" as="geometry" />
        </mxCell>
        <mxCell id="XTJR7gHnpwJBO97E3nRa-2" value="" style="html=1;points=[];perimeter=orthogonalPerimeter;outlineConnect=0;targetShapes=umlLifeline;portConstraint=eastwest;newEdgeStyle={&quot;edgeStyle&quot;:&quot;elbowEdgeStyle&quot;,&quot;elbow&quot;:&quot;vertical&quot;,&quot;curved&quot;:0,&quot;rounded&quot;:0};" vertex="1" parent="XTJR7gHnpwJBO97E3nRa-1">
          <mxGeometry x="45" y="80" width="10" height="170" as="geometry" />
        </mxCell>
        <mxCell id="XTJR7gHnpwJBO97E3nRa-5" value="LeporaAI" style="shape=umlActor;verticalLabelPosition=bottom;verticalAlign=top;html=1;outlineConnect=0;" vertex="1" parent="1">
          <mxGeometry x="-280" y="50" width="50" height="110" as="geometry" />
        </mxCell>
        <mxCell id="XTJR7gHnpwJBO97E3nRa-6" value="TTS" style="shape=umlLifeline;perimeter=lifelinePerimeter;whiteSpace=wrap;html=1;container=0;dropTarget=0;collapsible=0;recursiveResize=0;outlineConnect=0;portConstraint=eastwest;newEdgeStyle={&quot;edgeStyle&quot;:&quot;elbowEdgeStyle&quot;,&quot;elbow&quot;:&quot;vertical&quot;,&quot;curved&quot;:0,&quot;rounded&quot;:0};" vertex="1" parent="1">
          <mxGeometry x="1010" y="40" width="100" height="400" as="geometry" />
        </mxCell>
        <mxCell id="XTJR7gHnpwJBO97E3nRa-7" value="" style="html=1;points=[];perimeter=orthogonalPerimeter;outlineConnect=0;targetShapes=umlLifeline;portConstraint=eastwest;newEdgeStyle={&quot;edgeStyle&quot;:&quot;elbowEdgeStyle&quot;,&quot;elbow&quot;:&quot;vertical&quot;,&quot;curved&quot;:0,&quot;rounded&quot;:0};" vertex="1" parent="XTJR7gHnpwJBO97E3nRa-6">
          <mxGeometry x="45" y="80" width="10" height="280" as="geometry" />
        </mxCell>
        <mxCell id="XTJR7gHnpwJBO97E3nRa-8" value="" style="endArrow=classic;html=1;rounded=0;" edge="1" parent="1">
          <mxGeometry width="50" height="50" relative="1" as="geometry">
            <mxPoint x="550.19" y="130" as="sourcePoint" />
            <mxPoint x="550.0003448275861" y="189.9999999999999" as="targetPoint" />
            <Array as="points">
              <mxPoint x="670.19" y="130" />
              <mxPoint x="670.19" y="190" />
              <mxPoint x="610.19" y="190" />
            </Array>
          </mxGeometry>
        </mxCell>
        <mxCell id="XTJR7gHnpwJBO97E3nRa-9" value="Каждые 2 секунды llm берёт все сообщения из&amp;nbsp;_unprocessedChatMessagesQueue&amp;nbsp;" style="edgeLabel;html=1;align=center;verticalAlign=middle;resizable=0;points=[];" vertex="1" connectable="0" parent="XTJR7gHnpwJBO97E3nRa-8">
          <mxGeometry x="-0.6051" y="-2" relative="1" as="geometry">
            <mxPoint x="61" y="28" as="offset" />
          </mxGeometry>
        </mxCell>
        <mxCell id="XTJR7gHnpwJBO97E3nRa-13" value="и отвечает на них с подгрузкой сообщений из истории и удаляет сообщения из очереди памяти&amp;nbsp;" style="edgeLabel;html=1;align=center;verticalAlign=middle;resizable=0;points=[];" vertex="1" connectable="0" parent="XTJR7gHnpwJBO97E3nRa-8">
          <mxGeometry x="-0.6051" y="-2" relative="1" as="geometry">
            <mxPoint x="61" y="48" as="offset" />
          </mxGeometry>
        </mxCell>
        <mxCell id="XTJR7gHnpwJBO97E3nRa-11" value="" style="endArrow=none;html=1;rounded=0;" edge="1" parent="1" target="XTJR7gHnpwJBO97E3nRa-1">
          <mxGeometry width="50" height="50" relative="1" as="geometry">
            <mxPoint x="410" y="130" as="sourcePoint" />
            <mxPoint x="460" y="80" as="targetPoint" />
          </mxGeometry>
        </mxCell>
        <mxCell id="XTJR7gHnpwJBO97E3nRa-14" value="" style="endArrow=classic;html=1;rounded=0;" edge="1" parent="1" target="aM9ryv3xv72pqoxQDRHE-5">
          <mxGeometry width="50" height="50" relative="1" as="geometry">
            <mxPoint x="550.19" y="210" as="sourcePoint" />
            <mxPoint x="550.0003448275861" y="269.9999999999999" as="targetPoint" />
            <Array as="points">
              <mxPoint x="670.19" y="210" />
              <mxPoint x="670.19" y="270" />
              <mxPoint x="610.19" y="270" />
            </Array>
          </mxGeometry>
        </mxCell>
        <mxCell id="XTJR7gHnpwJBO97E3nRa-15" value="После LLM ответа добавить новые сообщения в память с ответом от LLM и удалить все старые за 20 сообщений" style="edgeLabel;html=1;align=center;verticalAlign=middle;resizable=0;points=[];" vertex="1" connectable="0" parent="XTJR7gHnpwJBO97E3nRa-14">
          <mxGeometry x="-0.6051" y="-2" relative="1" as="geometry">
            <mxPoint x="131" y="28" as="offset" />
          </mxGeometry>
        </mxCell>
        <mxCell id="XTJR7gHnpwJBO97E3nRa-17" value="Озвучить придуманное сообщение от LLM" style="html=1;verticalAlign=bottom;endArrow=block;edgeStyle=elbowEdgeStyle;elbow=vertical;curved=0;rounded=0;" edge="1" parent="1" target="XTJR7gHnpwJBO97E3nRa-7">
          <mxGeometry relative="1" as="geometry">
            <mxPoint x="550" y="280" as="sourcePoint" />
            <Array as="points">
              <mxPoint x="635" y="280" />
            </Array>
            <mxPoint x="860" y="280" as="targetPoint" />
          </mxGeometry>
        </mxCell>
        <mxCell id="aM9ryv3xv72pqoxQDRHE-7" value="Когда кто либо пишет сообщение добавить это в память&lt;br&gt;_unprocessedChatMessagesQueue" style="html=1;verticalAlign=bottom;endArrow=block;edgeStyle=elbowEdgeStyle;elbow=vertical;curved=0;rounded=0;shadow=0;" parent="1" source="aM9ryv3xv72pqoxQDRHE-2" target="aM9ryv3xv72pqoxQDRHE-6" edge="1">
          <mxGeometry x="0.0011" relative="1" as="geometry">
            <mxPoint x="195" y="130" as="sourcePoint" />
            <Array as="points">
              <mxPoint x="180" y="120" />
            </Array>
            <mxPoint as="offset" />
          </mxGeometry>
        </mxCell>
        <mxCell id="XTJR7gHnpwJBO97E3nRa-27" value="Discord component" style="shape=umlLifeline;perimeter=lifelinePerimeter;whiteSpace=wrap;html=1;container=0;dropTarget=0;collapsible=0;recursiveResize=0;outlineConnect=0;portConstraint=eastwest;newEdgeStyle={&quot;edgeStyle&quot;:&quot;elbowEdgeStyle&quot;,&quot;elbow&quot;:&quot;vertical&quot;,&quot;curved&quot;:0,&quot;rounded&quot;:0};" vertex="1" parent="1">
          <mxGeometry x="60" y="40" width="100" height="400" as="geometry" />
        </mxCell>
        <mxCell id="XTJR7gHnpwJBO97E3nRa-28" value="" style="html=1;points=[];perimeter=orthogonalPerimeter;outlineConnect=0;targetShapes=umlLifeline;portConstraint=eastwest;newEdgeStyle={&quot;edgeStyle&quot;:&quot;elbowEdgeStyle&quot;,&quot;elbow&quot;:&quot;vertical&quot;,&quot;curved&quot;:0,&quot;rounded&quot;:0};" vertex="1" parent="XTJR7gHnpwJBO97E3nRa-27">
          <mxGeometry x="45" y="80" width="10" height="280" as="geometry" />
        </mxCell>
        <mxCell id="XTJR7gHnpwJBO97E3nRa-29" value="Как только Lepora получает&amp;nbsp;Сформированная фраза кидать её в _unprocessedChatMessagesQueue" style="html=1;verticalAlign=bottom;endArrow=block;edgeStyle=elbowEdgeStyle;elbow=vertical;curved=0;rounded=0;shadow=0;" edge="1" parent="1">
          <mxGeometry x="0.0029" relative="1" as="geometry">
            <mxPoint x="110" y="160.69" as="sourcePoint" />
            <Array as="points">
              <mxPoint x="180" y="160" />
            </Array>
            <mxPoint x="405" y="160" as="targetPoint" />
            <mxPoint as="offset" />
          </mxGeometry>
        </mxCell>
        <mxCell id="XTJR7gHnpwJBO97E3nRa-30" value="" style="html=1;verticalAlign=bottom;endArrow=block;edgeStyle=elbowEdgeStyle;elbow=vertical;curved=0;rounded=0;shadow=0;" edge="1" parent="1" target="XTJR7gHnpwJBO97E3nRa-6">
          <mxGeometry x="0.7633" y="-160" relative="1" as="geometry">
            <mxPoint x="110" y="370.69" as="sourcePoint" />
            <Array as="points">
              <mxPoint x="180" y="370" />
            </Array>
            <mxPoint x="1060" y="360" as="targetPoint" />
            <mxPoint as="offset" />
          </mxGeometry>
        </mxCell>
        <mxCell id="XTJR7gHnpwJBO97E3nRa-31" value="Но если Lepora получила любую новую&amp;nbsp;Промежуточный результат остановить&amp;nbsp; TTS" style="edgeLabel;html=1;align=center;verticalAlign=middle;resizable=0;points=[];" vertex="1" connectable="0" parent="XTJR7gHnpwJBO97E3nRa-30">
          <mxGeometry x="-0.0334" relative="1" as="geometry">
            <mxPoint as="offset" />
          </mxGeometry>
        </mxCell>
      </root>
    </mxGraphModel>
  </diagram>
</mxfile>
